<mxfile host="app.diagrams.net" modified="2022-02-06T22:52:38.745Z" agent="5.0 (X11; Linux x86_64) AppleWebKit/537.36 (KHTML, like Gecko) Chrome/98.0.4758.80 Safari/537.36" etag="hub3X_W2cyJugfiGO0NN" version="16.5.3" type="github" pages="5">
  <diagram id="vtB6Pyx49s2QO1CJkhL8" name="bk_logical">
    <mxGraphModel dx="920" dy="1253" grid="1" gridSize="10" guides="1" tooltips="1" connect="1" arrows="1" fold="1" page="1" pageScale="1" pageWidth="827" pageHeight="1169" background="none" math="0" shadow="0">
      <root>
        <mxCell id="uNL-YgNEHmAtpj0UIafA-0" />
        <mxCell id="uNL-YgNEHmAtpj0UIafA-1" parent="uNL-YgNEHmAtpj0UIafA-0" />
        <mxCell id="uNL-YgNEHmAtpj0UIafA-2" style="edgeStyle=orthogonalEdgeStyle;rounded=0;orthogonalLoop=1;jettySize=auto;html=1;startArrow=ERone;startFill=0;endArrow=ERoneToMany;endFill=0;strokeWidth=1;" parent="uNL-YgNEHmAtpj0UIafA-1" source="uNL-YgNEHmAtpj0UIafA-3" target="uNL-YgNEHmAtpj0UIafA-40" edge="1">
          <mxGeometry relative="1" as="geometry">
            <mxPoint x="150" y="750" as="targetPoint" />
          </mxGeometry>
        </mxCell>
        <mxCell id="uNL-YgNEHmAtpj0UIafA-3" value="Citizen" style="swimlane;html=1;fontStyle=1;align=center;verticalAlign=top;childLayout=stackLayout;horizontal=1;startSize=26;horizontalStack=0;resizeParent=1;resizeLast=0;collapsible=1;marginBottom=0;swimlaneFillColor=#ffffff;rounded=0;shadow=0;comic=0;labelBackgroundColor=none;strokeWidth=1;fillColor=none;fontFamily=Verdana;fontSize=12" parent="uNL-YgNEHmAtpj0UIafA-1" vertex="1">
          <mxGeometry x="270" y="800" width="160" height="104" as="geometry" />
        </mxCell>
        <mxCell id="uNL-YgNEHmAtpj0UIafA-4" value="SIN" style="text;html=1;strokeColor=none;fillColor=none;align=left;verticalAlign=top;spacingLeft=4;spacingRight=4;whiteSpace=wrap;overflow=hidden;rotatable=0;points=[[0,0.5],[1,0.5]];portConstraint=eastwest;fontStyle=1" parent="uNL-YgNEHmAtpj0UIafA-3" vertex="1">
          <mxGeometry y="26" width="160" height="26" as="geometry" />
        </mxCell>
        <mxCell id="uNL-YgNEHmAtpj0UIafA-5" value="Telephone" style="text;html=1;strokeColor=none;fillColor=none;align=left;verticalAlign=top;spacingLeft=4;spacingRight=4;whiteSpace=wrap;overflow=hidden;rotatable=0;points=[[0,0.5],[1,0.5]];portConstraint=eastwest;" parent="uNL-YgNEHmAtpj0UIafA-3" vertex="1">
          <mxGeometry y="52" width="160" height="26" as="geometry" />
        </mxCell>
        <mxCell id="uNL-YgNEHmAtpj0UIafA-6" value="Name&lt;br&gt;" style="text;html=1;strokeColor=none;fillColor=none;align=left;verticalAlign=top;spacingLeft=4;spacingRight=4;whiteSpace=wrap;overflow=hidden;rotatable=0;points=[[0,0.5],[1,0.5]];portConstraint=eastwest;" parent="uNL-YgNEHmAtpj0UIafA-3" vertex="1">
          <mxGeometry y="78" width="160" height="26" as="geometry" />
        </mxCell>
        <mxCell id="uNL-YgNEHmAtpj0UIafA-7" style="edgeStyle=orthogonalEdgeStyle;rounded=0;orthogonalLoop=1;jettySize=auto;html=1;entryX=0.5;entryY=0;entryDx=0;entryDy=0;startArrow=none;startFill=0;endArrow=block;endFill=0;strokeWidth=1;" parent="uNL-YgNEHmAtpj0UIafA-1" source="uNL-YgNEHmAtpj0UIafA-9" target="uNL-YgNEHmAtpj0UIafA-3" edge="1">
          <mxGeometry relative="1" as="geometry" />
        </mxCell>
        <mxCell id="uNL-YgNEHmAtpj0UIafA-8" style="edgeStyle=orthogonalEdgeStyle;rounded=0;orthogonalLoop=1;jettySize=auto;html=1;startArrow=ERone;startFill=0;endArrow=ERoneToMany;endFill=0;strokeWidth=1;" parent="uNL-YgNEHmAtpj0UIafA-1" source="uNL-YgNEHmAtpj0UIafA-9" target="uNL-YgNEHmAtpj0UIafA-47" edge="1">
          <mxGeometry relative="1" as="geometry">
            <mxPoint x="370" y="380" as="targetPoint" />
            <Array as="points">
              <mxPoint x="510" y="590" />
              <mxPoint x="370" y="590" />
            </Array>
          </mxGeometry>
        </mxCell>
        <mxCell id="uNL-YgNEHmAtpj0UIafA-9" value="Candidate" style="swimlane;html=1;fontStyle=1;align=center;verticalAlign=top;childLayout=stackLayout;horizontal=1;startSize=26;horizontalStack=0;resizeParent=1;resizeLast=0;collapsible=1;marginBottom=0;swimlaneFillColor=#ffffff;rounded=0;shadow=0;comic=0;labelBackgroundColor=none;strokeWidth=1;fillColor=none;fontFamily=Verdana;fontSize=12" parent="uNL-YgNEHmAtpj0UIafA-1" vertex="1">
          <mxGeometry x="470" y="630" width="160" height="104" as="geometry" />
        </mxCell>
        <mxCell id="uNL-YgNEHmAtpj0UIafA-10" value="Candidate ID" style="text;html=1;strokeColor=none;fillColor=none;align=left;verticalAlign=top;spacingLeft=4;spacingRight=4;whiteSpace=wrap;overflow=hidden;rotatable=0;points=[[0,0.5],[1,0.5]];portConstraint=eastwest;fontStyle=1" parent="uNL-YgNEHmAtpj0UIafA-9" vertex="1">
          <mxGeometry y="26" width="160" height="26" as="geometry" />
        </mxCell>
        <mxCell id="uNL-YgNEHmAtpj0UIafA-11" value="Age" style="text;html=1;strokeColor=none;fillColor=none;align=left;verticalAlign=top;spacingLeft=4;spacingRight=4;whiteSpace=wrap;overflow=hidden;rotatable=0;points=[[0,0.5],[1,0.5]];portConstraint=eastwest;" parent="uNL-YgNEHmAtpj0UIafA-9" vertex="1">
          <mxGeometry y="52" width="160" height="26" as="geometry" />
        </mxCell>
        <mxCell id="uNL-YgNEHmAtpj0UIafA-12" value="Gender" style="text;html=1;strokeColor=none;fillColor=none;align=left;verticalAlign=top;spacingLeft=4;spacingRight=4;whiteSpace=wrap;overflow=hidden;rotatable=0;points=[[0,0.5],[1,0.5]];portConstraint=eastwest;" parent="uNL-YgNEHmAtpj0UIafA-9" vertex="1">
          <mxGeometry y="78" width="160" height="26" as="geometry" />
        </mxCell>
        <mxCell id="uNL-YgNEHmAtpj0UIafA-13" value="" style="edgeStyle=orthogonalEdgeStyle;rounded=0;orthogonalLoop=1;jettySize=auto;html=1;startArrow=none;startFill=0;endArrow=block;endFill=0;strokeWidth=1;entryX=0.75;entryY=0;entryDx=0;entryDy=0;" parent="uNL-YgNEHmAtpj0UIafA-1" source="uNL-YgNEHmAtpj0UIafA-14" target="uNL-YgNEHmAtpj0UIafA-9" edge="1">
          <mxGeometry relative="1" as="geometry" />
        </mxCell>
        <mxCell id="uNL-YgNEHmAtpj0UIafA-14" value="Party Leader" style="swimlane;html=1;fontStyle=1;align=center;verticalAlign=top;childLayout=stackLayout;horizontal=1;startSize=26;horizontalStack=0;resizeParent=1;resizeLast=0;collapsible=1;marginBottom=0;swimlaneFillColor=#ffffff;rounded=0;shadow=0;comic=0;labelBackgroundColor=none;strokeWidth=1;fillColor=none;fontFamily=Verdana;fontSize=12;strokeColor=default;" parent="uNL-YgNEHmAtpj0UIafA-1" vertex="1">
          <mxGeometry x="580" y="471" width="160" height="78" as="geometry" />
        </mxCell>
        <mxCell id="uNL-YgNEHmAtpj0UIafA-15" value="Party Leader ID" style="text;html=1;strokeColor=none;fillColor=none;align=left;verticalAlign=top;spacingLeft=4;spacingRight=4;whiteSpace=wrap;overflow=hidden;rotatable=0;points=[[0,0.5],[1,0.5]];portConstraint=eastwest;fontStyle=1" parent="uNL-YgNEHmAtpj0UIafA-14" vertex="1">
          <mxGeometry y="26" width="160" height="26" as="geometry" />
        </mxCell>
        <mxCell id="uNL-YgNEHmAtpj0UIafA-16" value="Date Elected" style="text;html=1;strokeColor=none;fillColor=none;align=left;verticalAlign=top;spacingLeft=4;spacingRight=4;whiteSpace=wrap;overflow=hidden;rotatable=0;points=[[0,0.5],[1,0.5]];portConstraint=eastwest;" parent="uNL-YgNEHmAtpj0UIafA-14" vertex="1">
          <mxGeometry y="52" width="160" height="26" as="geometry" />
        </mxCell>
        <mxCell id="uNL-YgNEHmAtpj0UIafA-17" style="edgeStyle=orthogonalEdgeStyle;rounded=0;orthogonalLoop=1;jettySize=auto;html=1;startArrow=ERone;startFill=0;endArrow=ERone;endFill=0;strokeWidth=1;" parent="uNL-YgNEHmAtpj0UIafA-1" source="uNL-YgNEHmAtpj0UIafA-18" target="uNL-YgNEHmAtpj0UIafA-37" edge="1">
          <mxGeometry relative="1" as="geometry">
            <mxPoint x="150" y="330" as="targetPoint" />
          </mxGeometry>
        </mxCell>
        <mxCell id="uNL-YgNEHmAtpj0UIafA-18" value="County" style="swimlane;html=1;fontStyle=1;align=center;verticalAlign=top;childLayout=stackLayout;horizontal=1;startSize=26;horizontalStack=0;resizeParent=1;resizeLast=0;collapsible=1;marginBottom=0;swimlaneFillColor=#ffffff;rounded=0;shadow=0;comic=0;labelBackgroundColor=none;strokeWidth=1;fillColor=none;fontFamily=Verdana;fontSize=12" parent="uNL-YgNEHmAtpj0UIafA-1" vertex="1">
          <mxGeometry x="70" y="160" width="160" height="90" as="geometry" />
        </mxCell>
        <mxCell id="uNL-YgNEHmAtpj0UIafA-19" value="&lt;b&gt;+County ID&lt;/b&gt;" style="text;html=1;strokeColor=none;fillColor=none;align=left;verticalAlign=top;spacingLeft=4;spacingRight=4;whiteSpace=wrap;overflow=hidden;rotatable=0;points=[[0,0.5],[1,0.5]];portConstraint=eastwest;" parent="uNL-YgNEHmAtpj0UIafA-18" vertex="1">
          <mxGeometry y="26" width="160" height="26" as="geometry" />
        </mxCell>
        <mxCell id="uNL-YgNEHmAtpj0UIafA-20" value="County Name" style="text;html=1;strokeColor=none;fillColor=none;align=left;verticalAlign=top;spacingLeft=4;spacingRight=4;whiteSpace=wrap;overflow=hidden;rotatable=0;points=[[0,0.5],[1,0.5]];portConstraint=eastwest;" parent="uNL-YgNEHmAtpj0UIafA-18" vertex="1">
          <mxGeometry y="52" width="160" height="26" as="geometry" />
        </mxCell>
        <mxCell id="uNL-YgNEHmAtpj0UIafA-21" value="Electoral Pole" style="swimlane;html=1;fontStyle=1;align=center;verticalAlign=top;childLayout=stackLayout;horizontal=1;startSize=26;horizontalStack=0;resizeParent=1;resizeLast=0;collapsible=1;marginBottom=0;swimlaneFillColor=#ffffff;rounded=0;shadow=0;comic=0;labelBackgroundColor=none;strokeWidth=1;fillColor=none;fontFamily=Verdana;fontSize=12" parent="uNL-YgNEHmAtpj0UIafA-1" vertex="1">
          <mxGeometry x="70" y="471" width="160" height="78" as="geometry" />
        </mxCell>
        <mxCell id="uNL-YgNEHmAtpj0UIafA-22" value="Pole ID" style="text;html=1;strokeColor=none;fillColor=none;align=left;verticalAlign=top;spacingLeft=4;spacingRight=4;whiteSpace=wrap;overflow=hidden;rotatable=0;points=[[0,0.5],[1,0.5]];portConstraint=eastwest;fontStyle=1" parent="uNL-YgNEHmAtpj0UIafA-21" vertex="1">
          <mxGeometry y="26" width="160" height="26" as="geometry" />
        </mxCell>
        <mxCell id="uNL-YgNEHmAtpj0UIafA-23" value="Pole Address" style="text;html=1;strokeColor=none;fillColor=none;align=left;verticalAlign=top;spacingLeft=4;spacingRight=4;whiteSpace=wrap;overflow=hidden;rotatable=0;points=[[0,0.5],[1,0.5]];portConstraint=eastwest;" parent="uNL-YgNEHmAtpj0UIafA-21" vertex="1">
          <mxGeometry y="52" width="160" height="26" as="geometry" />
        </mxCell>
        <mxCell id="uNL-YgNEHmAtpj0UIafA-24" style="edgeStyle=orthogonalEdgeStyle;rounded=0;orthogonalLoop=1;jettySize=auto;html=1;entryX=0.5;entryY=0;entryDx=0;entryDy=0;startArrow=ERoneToMany;startFill=0;endArrow=ERone;endFill=0;strokeWidth=1;" parent="uNL-YgNEHmAtpj0UIafA-1" source="uNL-YgNEHmAtpj0UIafA-37" target="uNL-YgNEHmAtpj0UIafA-21" edge="1">
          <mxGeometry relative="1" as="geometry">
            <mxPoint x="150" y="390" as="sourcePoint" />
          </mxGeometry>
        </mxCell>
        <mxCell id="uNL-YgNEHmAtpj0UIafA-25" style="edgeStyle=orthogonalEdgeStyle;rounded=0;orthogonalLoop=1;jettySize=auto;html=1;startArrow=ERone;startFill=0;endArrow=ERone;endFill=0;strokeWidth=1;" parent="uNL-YgNEHmAtpj0UIafA-1" source="uNL-YgNEHmAtpj0UIafA-26" target="uNL-YgNEHmAtpj0UIafA-50" edge="1">
          <mxGeometry relative="1" as="geometry">
            <mxPoint x="550" y="360" as="targetPoint" />
          </mxGeometry>
        </mxCell>
        <mxCell id="uNL-YgNEHmAtpj0UIafA-26" value="Party" style="swimlane;html=1;fontStyle=1;align=center;verticalAlign=top;childLayout=stackLayout;horizontal=1;startSize=26;horizontalStack=0;resizeParent=1;resizeLast=0;collapsible=1;marginBottom=0;swimlaneFillColor=#ffffff;rounded=0;shadow=0;comic=0;labelBackgroundColor=none;strokeWidth=1;fillColor=none;fontFamily=Verdana;fontSize=12" parent="uNL-YgNEHmAtpj0UIafA-1" vertex="1">
          <mxGeometry x="470" y="110" width="160" height="130" as="geometry" />
        </mxCell>
        <mxCell id="uNL-YgNEHmAtpj0UIafA-27" value="Party ID" style="text;html=1;strokeColor=none;fillColor=none;align=left;verticalAlign=top;spacingLeft=4;spacingRight=4;whiteSpace=wrap;overflow=hidden;rotatable=0;points=[[0,0.5],[1,0.5]];portConstraint=eastwest;fontStyle=1" parent="uNL-YgNEHmAtpj0UIafA-26" vertex="1">
          <mxGeometry y="26" width="160" height="26" as="geometry" />
        </mxCell>
        <mxCell id="uNL-YgNEHmAtpj0UIafA-28" value="Name" style="text;html=1;strokeColor=none;fillColor=none;align=left;verticalAlign=top;spacingLeft=4;spacingRight=4;whiteSpace=wrap;overflow=hidden;rotatable=0;points=[[0,0.5],[1,0.5]];portConstraint=eastwest;" parent="uNL-YgNEHmAtpj0UIafA-26" vertex="1">
          <mxGeometry y="52" width="160" height="26" as="geometry" />
        </mxCell>
        <mxCell id="uNL-YgNEHmAtpj0UIafA-29" value="Address" style="text;html=1;strokeColor=none;fillColor=none;align=left;verticalAlign=top;spacingLeft=4;spacingRight=4;whiteSpace=wrap;overflow=hidden;rotatable=0;points=[[0,0.5],[1,0.5]];portConstraint=eastwest;" parent="uNL-YgNEHmAtpj0UIafA-26" vertex="1">
          <mxGeometry y="78" width="160" height="26" as="geometry" />
        </mxCell>
        <mxCell id="uNL-YgNEHmAtpj0UIafA-30" value="Telehpone" style="text;html=1;strokeColor=none;fillColor=none;align=left;verticalAlign=top;spacingLeft=4;spacingRight=4;whiteSpace=wrap;overflow=hidden;rotatable=0;points=[[0,0.5],[1,0.5]];portConstraint=eastwest;" parent="uNL-YgNEHmAtpj0UIafA-26" vertex="1">
          <mxGeometry y="104" width="160" height="26" as="geometry" />
        </mxCell>
        <mxCell id="uNL-YgNEHmAtpj0UIafA-31" style="edgeStyle=orthogonalEdgeStyle;rounded=0;orthogonalLoop=1;jettySize=auto;html=1;startArrow=ERone;startFill=0;endArrow=ERone;endFill=0;strokeWidth=1;" parent="uNL-YgNEHmAtpj0UIafA-1" source="uNL-YgNEHmAtpj0UIafA-26" target="uNL-YgNEHmAtpj0UIafA-14" edge="1">
          <mxGeometry relative="1" as="geometry">
            <mxPoint x="660" y="320" as="sourcePoint" />
            <Array as="points">
              <mxPoint x="660" y="162" />
            </Array>
          </mxGeometry>
        </mxCell>
        <mxCell id="uNL-YgNEHmAtpj0UIafA-32" style="edgeStyle=orthogonalEdgeStyle;rounded=0;orthogonalLoop=1;jettySize=auto;html=1;entryX=0.5;entryY=0;entryDx=0;entryDy=0;startArrow=ERoneToMany;startFill=0;endArrow=ERone;endFill=0;strokeWidth=1;" parent="uNL-YgNEHmAtpj0UIafA-1" source="uNL-YgNEHmAtpj0UIafA-50" target="uNL-YgNEHmAtpj0UIafA-9" edge="1">
          <mxGeometry relative="1" as="geometry">
            <mxPoint x="550" y="420" as="sourcePoint" />
          </mxGeometry>
        </mxCell>
        <mxCell id="uNL-YgNEHmAtpj0UIafA-33" style="edgeStyle=orthogonalEdgeStyle;rounded=0;orthogonalLoop=1;jettySize=auto;html=1;startArrow=ERone;startFill=0;endArrow=ERone;endFill=0;strokeWidth=1;" parent="uNL-YgNEHmAtpj0UIafA-1" source="uNL-YgNEHmAtpj0UIafA-40" target="uNL-YgNEHmAtpj0UIafA-21" edge="1">
          <mxGeometry relative="1" as="geometry">
            <mxPoint x="150" y="690" as="sourcePoint" />
          </mxGeometry>
        </mxCell>
        <mxCell id="uNL-YgNEHmAtpj0UIafA-34" style="edgeStyle=orthogonalEdgeStyle;rounded=0;orthogonalLoop=1;jettySize=auto;html=1;entryX=0.5;entryY=0;entryDx=0;entryDy=0;startArrow=ERone;startFill=0;endArrow=ERone;endFill=0;strokeWidth=1;" parent="uNL-YgNEHmAtpj0UIafA-1" source="uNL-YgNEHmAtpj0UIafA-47" target="uNL-YgNEHmAtpj0UIafA-18" edge="1">
          <mxGeometry relative="1" as="geometry">
            <mxPoint x="410" y="380" as="sourcePoint" />
            <Array as="points">
              <mxPoint x="370" y="90" />
              <mxPoint x="150" y="90" />
            </Array>
          </mxGeometry>
        </mxCell>
        <mxCell id="uNL-YgNEHmAtpj0UIafA-35" style="edgeStyle=orthogonalEdgeStyle;rounded=0;orthogonalLoop=1;jettySize=auto;html=1;entryX=0.5;entryY=0;entryDx=0;entryDy=0;startArrow=ERoneToMany;startFill=0;endArrow=ERone;endFill=0;strokeWidth=1;" parent="uNL-YgNEHmAtpj0UIafA-1" source="uNL-YgNEHmAtpj0UIafA-43" target="uNL-YgNEHmAtpj0UIafA-26" edge="1">
          <mxGeometry relative="1" as="geometry">
            <mxPoint x="700" y="852.0000000000002" as="sourcePoint" />
            <Array as="points">
              <mxPoint x="770" y="852" />
              <mxPoint x="770" y="90" />
              <mxPoint x="550" y="90" />
            </Array>
          </mxGeometry>
        </mxCell>
        <mxCell id="uNL-YgNEHmAtpj0UIafA-36" style="edgeStyle=orthogonalEdgeStyle;rounded=0;orthogonalLoop=1;jettySize=auto;html=1;startArrow=ERoneToMany;startFill=0;endArrow=ERone;endFill=0;strokeWidth=1;" parent="uNL-YgNEHmAtpj0UIafA-1" source="uNL-YgNEHmAtpj0UIafA-43" target="uNL-YgNEHmAtpj0UIafA-3" edge="1">
          <mxGeometry relative="1" as="geometry">
            <mxPoint x="580" y="851.9999999999998" as="sourcePoint" />
            <Array as="points">
              <mxPoint x="530" y="852" />
              <mxPoint x="530" y="852" />
            </Array>
          </mxGeometry>
        </mxCell>
        <mxCell id="uNL-YgNEHmAtpj0UIafA-37" value="County_Pole" style="swimlane;html=1;fontStyle=1;align=center;verticalAlign=top;childLayout=stackLayout;horizontal=1;startSize=26;horizontalStack=0;resizeParent=1;resizeLast=0;collapsible=1;marginBottom=0;swimlaneFillColor=#ffffff;rounded=0;shadow=0;comic=0;labelBackgroundColor=none;strokeWidth=1;fillColor=none;fontFamily=Verdana;fontSize=12" parent="uNL-YgNEHmAtpj0UIafA-1" vertex="1">
          <mxGeometry x="70" y="360" width="160" height="78" as="geometry" />
        </mxCell>
        <mxCell id="uNL-YgNEHmAtpj0UIafA-38" value="Pole ID" style="text;html=1;strokeColor=none;fillColor=none;align=left;verticalAlign=top;spacingLeft=4;spacingRight=4;whiteSpace=wrap;overflow=hidden;rotatable=0;points=[[0,0.5],[1,0.5]];portConstraint=eastwest;fontStyle=2" parent="uNL-YgNEHmAtpj0UIafA-37" vertex="1">
          <mxGeometry y="26" width="160" height="26" as="geometry" />
        </mxCell>
        <mxCell id="uNL-YgNEHmAtpj0UIafA-39" value="&lt;span&gt;&lt;i&gt;County ID&lt;/i&gt;&lt;/span&gt;" style="text;html=1;strokeColor=none;fillColor=none;align=left;verticalAlign=top;spacingLeft=4;spacingRight=4;whiteSpace=wrap;overflow=hidden;rotatable=0;points=[[0,0.5],[1,0.5]];portConstraint=eastwest;fontStyle=1" parent="uNL-YgNEHmAtpj0UIafA-37" vertex="1">
          <mxGeometry y="52" width="160" height="26" as="geometry" />
        </mxCell>
        <mxCell id="uNL-YgNEHmAtpj0UIafA-40" value="Pole_Citizen" style="swimlane;html=1;fontStyle=1;align=center;verticalAlign=top;childLayout=stackLayout;horizontal=1;startSize=26;horizontalStack=0;resizeParent=1;resizeLast=0;collapsible=1;marginBottom=0;swimlaneFillColor=#ffffff;rounded=0;shadow=0;comic=0;labelBackgroundColor=none;strokeWidth=1;fillColor=none;fontFamily=Verdana;fontSize=12" parent="uNL-YgNEHmAtpj0UIafA-1" vertex="1">
          <mxGeometry x="70" y="740" width="160" height="78" as="geometry" />
        </mxCell>
        <mxCell id="uNL-YgNEHmAtpj0UIafA-41" value="Pole ID" style="text;html=1;strokeColor=none;fillColor=none;align=left;verticalAlign=top;spacingLeft=4;spacingRight=4;whiteSpace=wrap;overflow=hidden;rotatable=0;points=[[0,0.5],[1,0.5]];portConstraint=eastwest;fontStyle=3" parent="uNL-YgNEHmAtpj0UIafA-40" vertex="1">
          <mxGeometry y="26" width="160" height="26" as="geometry" />
        </mxCell>
        <mxCell id="uNL-YgNEHmAtpj0UIafA-42" value="&lt;span&gt;SIN&lt;/span&gt;" style="text;html=1;strokeColor=none;fillColor=none;align=left;verticalAlign=top;spacingLeft=4;spacingRight=4;whiteSpace=wrap;overflow=hidden;rotatable=0;points=[[0,0.5],[1,0.5]];portConstraint=eastwest;fontStyle=3" parent="uNL-YgNEHmAtpj0UIafA-40" vertex="1">
          <mxGeometry y="52" width="160" height="26" as="geometry" />
        </mxCell>
        <mxCell id="uNL-YgNEHmAtpj0UIafA-43" value="Contribution" style="swimlane;html=1;fontStyle=1;align=center;verticalAlign=top;childLayout=stackLayout;horizontal=1;startSize=26;horizontalStack=0;resizeParent=1;resizeLast=0;collapsible=1;marginBottom=0;swimlaneFillColor=#ffffff;rounded=0;shadow=0;comic=0;labelBackgroundColor=none;strokeWidth=1;fillColor=none;fontFamily=Verdana;fontSize=12" parent="uNL-YgNEHmAtpj0UIafA-1" vertex="1">
          <mxGeometry x="560" y="830" width="160" height="108" as="geometry" />
        </mxCell>
        <mxCell id="uNL-YgNEHmAtpj0UIafA-44" value="&lt;span style=&quot;color: rgb(0, 0, 0); font-family: helvetica; font-size: 12px; font-style: italic; letter-spacing: normal; text-align: left; text-indent: 0px; text-transform: none; word-spacing: 0px; background-color: rgb(248, 249, 250); display: inline; float: none;&quot;&gt;Party ID&lt;/span&gt;" style="text;whiteSpace=wrap;html=1;fontStyle=0" parent="uNL-YgNEHmAtpj0UIafA-43" vertex="1">
          <mxGeometry y="26" width="160" height="30" as="geometry" />
        </mxCell>
        <mxCell id="uNL-YgNEHmAtpj0UIafA-45" value="SIN" style="text;html=1;strokeColor=none;fillColor=none;align=left;verticalAlign=top;spacingLeft=4;spacingRight=4;whiteSpace=wrap;overflow=hidden;rotatable=0;points=[[0,0.5],[1,0.5]];portConstraint=eastwest;fontStyle=2" parent="uNL-YgNEHmAtpj0UIafA-43" vertex="1">
          <mxGeometry y="56" width="160" height="26" as="geometry" />
        </mxCell>
        <mxCell id="uNL-YgNEHmAtpj0UIafA-46" value="Amount" style="text;html=1;strokeColor=none;fillColor=none;align=left;verticalAlign=top;spacingLeft=4;spacingRight=4;whiteSpace=wrap;overflow=hidden;rotatable=0;points=[[0,0.5],[1,0.5]];portConstraint=eastwest;" parent="uNL-YgNEHmAtpj0UIafA-43" vertex="1">
          <mxGeometry y="82" width="160" height="26" as="geometry" />
        </mxCell>
        <mxCell id="uNL-YgNEHmAtpj0UIafA-47" value="County_Candidate" style="swimlane;html=1;fontStyle=1;align=center;verticalAlign=top;childLayout=stackLayout;horizontal=1;startSize=26;horizontalStack=0;resizeParent=1;resizeLast=0;collapsible=1;marginBottom=0;swimlaneFillColor=#ffffff;rounded=0;shadow=0;comic=0;labelBackgroundColor=none;strokeWidth=1;fillColor=none;fontFamily=Verdana;fontSize=12" parent="uNL-YgNEHmAtpj0UIafA-1" vertex="1">
          <mxGeometry x="295" y="350" width="160" height="78" as="geometry" />
        </mxCell>
        <mxCell id="uNL-YgNEHmAtpj0UIafA-48" value="Candidate ID" style="text;html=1;strokeColor=none;fillColor=none;align=left;verticalAlign=top;spacingLeft=4;spacingRight=4;whiteSpace=wrap;overflow=hidden;rotatable=0;points=[[0,0.5],[1,0.5]];portConstraint=eastwest;fontStyle=2" parent="uNL-YgNEHmAtpj0UIafA-47" vertex="1">
          <mxGeometry y="26" width="160" height="26" as="geometry" />
        </mxCell>
        <mxCell id="uNL-YgNEHmAtpj0UIafA-49" value="&lt;b&gt;&lt;i&gt;County ID&lt;/i&gt;&lt;/b&gt;" style="text;html=1;strokeColor=none;fillColor=none;align=left;verticalAlign=top;spacingLeft=4;spacingRight=4;whiteSpace=wrap;overflow=hidden;rotatable=0;points=[[0,0.5],[1,0.5]];portConstraint=eastwest;" parent="uNL-YgNEHmAtpj0UIafA-47" vertex="1">
          <mxGeometry y="52" width="160" height="26" as="geometry" />
        </mxCell>
        <mxCell id="uNL-YgNEHmAtpj0UIafA-50" value="Party_Candidate" style="swimlane;html=1;fontStyle=1;align=center;verticalAlign=top;childLayout=stackLayout;horizontal=1;startSize=26;horizontalStack=0;resizeParent=1;resizeLast=0;collapsible=1;marginBottom=0;swimlaneFillColor=#ffffff;rounded=0;shadow=0;comic=0;labelBackgroundColor=none;strokeWidth=1;fillColor=none;fontFamily=Verdana;fontSize=12" parent="uNL-YgNEHmAtpj0UIafA-1" vertex="1">
          <mxGeometry x="470" y="370" width="160" height="82" as="geometry" />
        </mxCell>
        <mxCell id="uNL-YgNEHmAtpj0UIafA-51" value="&lt;span style=&quot;color: rgb(0, 0, 0); font-family: helvetica; font-size: 12px; font-style: italic; font-weight: 700; letter-spacing: normal; text-align: left; text-indent: 0px; text-transform: none; word-spacing: 0px; background-color: rgb(248, 249, 250); display: inline; float: none;&quot;&gt;Party ID&lt;/span&gt;" style="text;whiteSpace=wrap;html=1;" parent="uNL-YgNEHmAtpj0UIafA-50" vertex="1">
          <mxGeometry y="26" width="160" height="30" as="geometry" />
        </mxCell>
        <mxCell id="uNL-YgNEHmAtpj0UIafA-52" value="Candidate ID" style="text;html=1;strokeColor=none;fillColor=none;align=left;verticalAlign=top;spacingLeft=4;spacingRight=4;whiteSpace=wrap;overflow=hidden;rotatable=0;points=[[0,0.5],[1,0.5]];portConstraint=eastwest;fontStyle=2" parent="uNL-YgNEHmAtpj0UIafA-50" vertex="1">
          <mxGeometry y="56" width="160" height="26" as="geometry" />
        </mxCell>
      </root>
    </mxGraphModel>
  </diagram>
  <diagram id="wL7THy--zS3pJ02HDwt1" name="bk_physical">
    <mxGraphModel dx="782" dy="1126" grid="1" gridSize="10" guides="1" tooltips="1" connect="1" arrows="1" fold="1" page="1" pageScale="1" pageWidth="827" pageHeight="1169" math="0" shadow="0">
      <root>
        <mxCell id="IEa4eLu7_Tm0JuJ3n0a0-0" />
        <mxCell id="IEa4eLu7_Tm0JuJ3n0a0-1" parent="IEa4eLu7_Tm0JuJ3n0a0-0" />
        <mxCell id="wTKbDZvRRet0_gXCNDXf-0" style="edgeStyle=orthogonalEdgeStyle;rounded=0;orthogonalLoop=1;jettySize=auto;html=1;startArrow=ERone;startFill=0;endArrow=ERoneToMany;endFill=0;strokeWidth=1;" parent="IEa4eLu7_Tm0JuJ3n0a0-1" source="wTKbDZvRRet0_gXCNDXf-2" target="wTKbDZvRRet0_gXCNDXf-41" edge="1">
          <mxGeometry relative="1" as="geometry">
            <mxPoint x="139" y="834" as="targetPoint" />
          </mxGeometry>
        </mxCell>
        <mxCell id="wTKbDZvRRet0_gXCNDXf-1" style="edgeStyle=orthogonalEdgeStyle;rounded=0;orthogonalLoop=1;jettySize=auto;html=1;startArrow=ERone;startFill=0;endArrow=ERoneToMany;endFill=0;strokeWidth=1;" parent="IEa4eLu7_Tm0JuJ3n0a0-1" source="wTKbDZvRRet0_gXCNDXf-2" target="wTKbDZvRRet0_gXCNDXf-50" edge="1">
          <mxGeometry relative="1" as="geometry" />
        </mxCell>
        <mxCell id="wTKbDZvRRet0_gXCNDXf-2" value="Citizen" style="swimlane;html=1;fontStyle=1;align=center;verticalAlign=top;childLayout=stackLayout;horizontal=1;startSize=26;horizontalStack=0;resizeParent=1;resizeLast=0;collapsible=1;marginBottom=0;swimlaneFillColor=#ffffff;rounded=0;shadow=0;comic=0;labelBackgroundColor=none;strokeWidth=1;fillColor=none;fontFamily=Verdana;fontSize=12" parent="IEa4eLu7_Tm0JuJ3n0a0-1" vertex="1">
          <mxGeometry x="279" y="884" width="160" height="110" as="geometry" />
        </mxCell>
        <mxCell id="wTKbDZvRRet0_gXCNDXf-3" value="+sin: int(9)" style="text;html=1;strokeColor=none;fillColor=none;align=left;verticalAlign=top;spacingLeft=4;spacingRight=4;whiteSpace=wrap;overflow=hidden;rotatable=0;points=[[0,0.5],[1,0.5]];portConstraint=eastwest;fontStyle=1" parent="wTKbDZvRRet0_gXCNDXf-2" vertex="1">
          <mxGeometry y="26" width="160" height="26" as="geometry" />
        </mxCell>
        <mxCell id="wTKbDZvRRet0_gXCNDXf-4" value="telephone: char(15)" style="text;html=1;strokeColor=none;fillColor=none;align=left;verticalAlign=top;spacingLeft=4;spacingRight=4;whiteSpace=wrap;overflow=hidden;rotatable=0;points=[[0,0.5],[1,0.5]];portConstraint=eastwest;" parent="wTKbDZvRRet0_gXCNDXf-2" vertex="1">
          <mxGeometry y="52" width="160" height="26" as="geometry" />
        </mxCell>
        <mxCell id="wTKbDZvRRet0_gXCNDXf-5" value="name: varchar(255)" style="text;html=1;strokeColor=none;fillColor=none;align=left;verticalAlign=top;spacingLeft=4;spacingRight=4;whiteSpace=wrap;overflow=hidden;rotatable=0;points=[[0,0.5],[1,0.5]];portConstraint=eastwest;" parent="wTKbDZvRRet0_gXCNDXf-2" vertex="1">
          <mxGeometry y="78" width="160" height="26" as="geometry" />
        </mxCell>
        <mxCell id="wTKbDZvRRet0_gXCNDXf-6" style="edgeStyle=orthogonalEdgeStyle;rounded=0;orthogonalLoop=1;jettySize=auto;html=1;entryX=0.5;entryY=0;entryDx=0;entryDy=0;startArrow=ERzeroToOne;startFill=0;endArrow=ERone;endFill=0;strokeWidth=1;" parent="IEa4eLu7_Tm0JuJ3n0a0-1" source="wTKbDZvRRet0_gXCNDXf-8" target="wTKbDZvRRet0_gXCNDXf-2" edge="1">
          <mxGeometry relative="1" as="geometry" />
        </mxCell>
        <mxCell id="wTKbDZvRRet0_gXCNDXf-7" style="edgeStyle=orthogonalEdgeStyle;rounded=0;orthogonalLoop=1;jettySize=auto;html=1;startArrow=ERone;startFill=0;endArrow=ERzeroToMany;endFill=0;strokeWidth=1;" parent="IEa4eLu7_Tm0JuJ3n0a0-1" source="wTKbDZvRRet0_gXCNDXf-8" target="wTKbDZvRRet0_gXCNDXf-38" edge="1">
          <mxGeometry relative="1" as="geometry">
            <mxPoint x="359" y="504" as="targetPoint" />
            <Array as="points">
              <mxPoint x="359" y="414" />
              <mxPoint x="359" y="414" />
            </Array>
          </mxGeometry>
        </mxCell>
        <mxCell id="wTKbDZvRRet0_gXCNDXf-8" value="Candidate" style="swimlane;html=1;fontStyle=1;align=center;verticalAlign=top;childLayout=stackLayout;horizontal=1;startSize=26;horizontalStack=0;resizeParent=1;resizeLast=0;collapsible=1;marginBottom=0;swimlaneFillColor=#ffffff;rounded=0;shadow=0;comic=0;labelBackgroundColor=none;strokeWidth=1;fillColor=none;fontFamily=Verdana;fontSize=12" parent="IEa4eLu7_Tm0JuJ3n0a0-1" vertex="1">
          <mxGeometry x="279" y="574" width="160" height="130" as="geometry" />
        </mxCell>
        <mxCell id="wTKbDZvRRet0_gXCNDXf-9" value="&lt;b&gt;+candidate_id: int&lt;/b&gt;" style="text;html=1;strokeColor=none;fillColor=none;align=left;verticalAlign=top;spacingLeft=4;spacingRight=4;whiteSpace=wrap;overflow=hidden;rotatable=0;points=[[0,0.5],[1,0.5]];portConstraint=eastwest;" parent="wTKbDZvRRet0_gXCNDXf-8" vertex="1">
          <mxGeometry y="26" width="160" height="26" as="geometry" />
        </mxCell>
        <mxCell id="wTKbDZvRRet0_gXCNDXf-10" value="&lt;i&gt;sin: int&lt;/i&gt;" style="text;html=1;strokeColor=none;fillColor=none;align=left;verticalAlign=top;spacingLeft=4;spacingRight=4;whiteSpace=wrap;overflow=hidden;rotatable=0;points=[[0,0.5],[1,0.5]];portConstraint=eastwest;" parent="wTKbDZvRRet0_gXCNDXf-8" vertex="1">
          <mxGeometry y="52" width="160" height="26" as="geometry" />
        </mxCell>
        <mxCell id="wTKbDZvRRet0_gXCNDXf-11" value="age: integer(2)" style="text;html=1;strokeColor=none;fillColor=none;align=left;verticalAlign=top;spacingLeft=4;spacingRight=4;whiteSpace=wrap;overflow=hidden;rotatable=0;points=[[0,0.5],[1,0.5]];portConstraint=eastwest;" parent="wTKbDZvRRet0_gXCNDXf-8" vertex="1">
          <mxGeometry y="78" width="160" height="26" as="geometry" />
        </mxCell>
        <mxCell id="wTKbDZvRRet0_gXCNDXf-12" value="gender: char(1)" style="text;html=1;strokeColor=none;fillColor=none;align=left;verticalAlign=top;spacingLeft=4;spacingRight=4;whiteSpace=wrap;overflow=hidden;rotatable=0;points=[[0,0.5],[1,0.5]];portConstraint=eastwest;" parent="wTKbDZvRRet0_gXCNDXf-8" vertex="1">
          <mxGeometry y="104" width="160" height="26" as="geometry" />
        </mxCell>
        <mxCell id="wTKbDZvRRet0_gXCNDXf-13" value="" style="edgeStyle=orthogonalEdgeStyle;rounded=0;orthogonalLoop=1;jettySize=auto;html=1;startArrow=ERzeroToOne;startFill=0;endArrow=ERone;endFill=0;strokeWidth=1;" parent="IEa4eLu7_Tm0JuJ3n0a0-1" source="wTKbDZvRRet0_gXCNDXf-15" target="wTKbDZvRRet0_gXCNDXf-8" edge="1">
          <mxGeometry relative="1" as="geometry">
            <Array as="points">
              <mxPoint x="389" y="666" />
            </Array>
          </mxGeometry>
        </mxCell>
        <mxCell id="wTKbDZvRRet0_gXCNDXf-14" style="edgeStyle=orthogonalEdgeStyle;rounded=0;orthogonalLoop=1;jettySize=auto;html=1;startArrow=ERone;startFill=0;endArrow=ERone;endFill=0;strokeWidth=1;" parent="IEa4eLu7_Tm0JuJ3n0a0-1" source="wTKbDZvRRet0_gXCNDXf-15" target="wTKbDZvRRet0_gXCNDXf-29" edge="1">
          <mxGeometry relative="1" as="geometry">
            <Array as="points">
              <mxPoint x="709" y="666" />
            </Array>
          </mxGeometry>
        </mxCell>
        <mxCell id="wTKbDZvRRet0_gXCNDXf-15" value="Party_Leader" style="swimlane;html=1;fontStyle=1;align=center;verticalAlign=top;childLayout=stackLayout;horizontal=1;startSize=26;horizontalStack=0;resizeParent=1;resizeLast=0;collapsible=1;marginBottom=0;swimlaneFillColor=#ffffff;rounded=0;shadow=0;comic=0;labelBackgroundColor=none;strokeWidth=1;fillColor=none;fontFamily=Verdana;fontSize=12" parent="IEa4eLu7_Tm0JuJ3n0a0-1" vertex="1">
          <mxGeometry x="509" y="614" width="160" height="104" as="geometry" />
        </mxCell>
        <mxCell id="wTKbDZvRRet0_gXCNDXf-16" value="&lt;b&gt;+party_leader_id: int&lt;/b&gt;" style="text;html=1;strokeColor=none;fillColor=none;align=left;verticalAlign=top;spacingLeft=4;spacingRight=4;whiteSpace=wrap;overflow=hidden;rotatable=0;points=[[0,0.5],[1,0.5]];portConstraint=eastwest;" parent="wTKbDZvRRet0_gXCNDXf-15" vertex="1">
          <mxGeometry y="26" width="160" height="26" as="geometry" />
        </mxCell>
        <mxCell id="wTKbDZvRRet0_gXCNDXf-17" value="&lt;i&gt;&lt;span&gt;candidate_id: int&lt;/span&gt;&lt;/i&gt;" style="text;html=1;strokeColor=none;fillColor=none;align=left;verticalAlign=top;spacingLeft=4;spacingRight=4;whiteSpace=wrap;overflow=hidden;rotatable=0;points=[[0,0.5],[1,0.5]];portConstraint=eastwest;fontStyle=0" parent="wTKbDZvRRet0_gXCNDXf-15" vertex="1">
          <mxGeometry y="52" width="160" height="26" as="geometry" />
        </mxCell>
        <mxCell id="wTKbDZvRRet0_gXCNDXf-18" value="leader_date_elected: date" style="text;html=1;strokeColor=none;fillColor=none;align=left;verticalAlign=top;spacingLeft=4;spacingRight=4;whiteSpace=wrap;overflow=hidden;rotatable=0;points=[[0,0.5],[1,0.5]];portConstraint=eastwest;" parent="wTKbDZvRRet0_gXCNDXf-15" vertex="1">
          <mxGeometry y="78" width="160" height="26" as="geometry" />
        </mxCell>
        <mxCell id="wTKbDZvRRet0_gXCNDXf-19" style="edgeStyle=orthogonalEdgeStyle;rounded=0;orthogonalLoop=1;jettySize=auto;html=1;startArrow=ERone;startFill=0;endArrow=ERone;endFill=0;strokeWidth=1;" parent="IEa4eLu7_Tm0JuJ3n0a0-1" source="wTKbDZvRRet0_gXCNDXf-20" target="wTKbDZvRRet0_gXCNDXf-53" edge="1">
          <mxGeometry relative="1" as="geometry">
            <mxPoint x="139" y="474" as="targetPoint" />
            <Array as="points">
              <mxPoint x="139" y="224" />
              <mxPoint x="139" y="224" />
            </Array>
          </mxGeometry>
        </mxCell>
        <mxCell id="wTKbDZvRRet0_gXCNDXf-20" value="County" style="swimlane;html=1;fontStyle=1;align=center;verticalAlign=top;childLayout=stackLayout;horizontal=1;startSize=26;horizontalStack=0;resizeParent=1;resizeLast=0;collapsible=1;marginBottom=0;swimlaneFillColor=#ffffff;rounded=0;shadow=0;comic=0;labelBackgroundColor=none;strokeWidth=1;fillColor=none;fontFamily=Verdana;fontSize=12" parent="IEa4eLu7_Tm0JuJ3n0a0-1" vertex="1">
          <mxGeometry x="59" y="84" width="180" height="90" as="geometry" />
        </mxCell>
        <mxCell id="wTKbDZvRRet0_gXCNDXf-21" value="&lt;b&gt;+county_id: int&lt;/b&gt;" style="text;html=1;strokeColor=none;fillColor=none;align=left;verticalAlign=top;spacingLeft=4;spacingRight=4;whiteSpace=wrap;overflow=hidden;rotatable=0;points=[[0,0.5],[1,0.5]];portConstraint=eastwest;" parent="wTKbDZvRRet0_gXCNDXf-20" vertex="1">
          <mxGeometry y="26" width="180" height="26" as="geometry" />
        </mxCell>
        <mxCell id="wTKbDZvRRet0_gXCNDXf-22" value="country_name: varchar(255)" style="text;html=1;strokeColor=none;fillColor=none;align=left;verticalAlign=top;spacingLeft=4;spacingRight=4;whiteSpace=wrap;overflow=hidden;rotatable=0;points=[[0,0.5],[1,0.5]];portConstraint=eastwest;" parent="wTKbDZvRRet0_gXCNDXf-20" vertex="1">
          <mxGeometry y="52" width="180" height="26" as="geometry" />
        </mxCell>
        <mxCell id="wTKbDZvRRet0_gXCNDXf-23" value="Electoral_Pole" style="swimlane;html=1;fontStyle=1;align=center;verticalAlign=top;childLayout=stackLayout;horizontal=1;startSize=26;horizontalStack=0;resizeParent=1;resizeLast=0;collapsible=1;marginBottom=0;swimlaneFillColor=#ffffff;rounded=0;shadow=0;comic=0;labelBackgroundColor=none;strokeWidth=1;fillColor=none;fontFamily=Verdana;fontSize=12" parent="IEa4eLu7_Tm0JuJ3n0a0-1" vertex="1">
          <mxGeometry x="59" y="555" width="160" height="104" as="geometry" />
        </mxCell>
        <mxCell id="wTKbDZvRRet0_gXCNDXf-24" value="&lt;b&gt;+pole_id: int&lt;/b&gt;" style="text;html=1;strokeColor=none;fillColor=none;align=left;verticalAlign=top;spacingLeft=4;spacingRight=4;whiteSpace=wrap;overflow=hidden;rotatable=0;points=[[0,0.5],[1,0.5]];portConstraint=eastwest;" parent="wTKbDZvRRet0_gXCNDXf-23" vertex="1">
          <mxGeometry y="26" width="160" height="26" as="geometry" />
        </mxCell>
        <mxCell id="wTKbDZvRRet0_gXCNDXf-25" value="&lt;i&gt;county_id: int&lt;/i&gt;" style="text;html=1;strokeColor=none;fillColor=none;align=left;verticalAlign=top;spacingLeft=4;spacingRight=4;whiteSpace=wrap;overflow=hidden;rotatable=0;points=[[0,0.5],[1,0.5]];portConstraint=eastwest;" parent="wTKbDZvRRet0_gXCNDXf-23" vertex="1">
          <mxGeometry y="52" width="160" height="26" as="geometry" />
        </mxCell>
        <mxCell id="wTKbDZvRRet0_gXCNDXf-26" value="pole_address: varchar(255)" style="text;html=1;strokeColor=none;fillColor=none;align=left;verticalAlign=top;spacingLeft=4;spacingRight=4;whiteSpace=wrap;overflow=hidden;rotatable=0;points=[[0,0.5],[1,0.5]];portConstraint=eastwest;" parent="wTKbDZvRRet0_gXCNDXf-23" vertex="1">
          <mxGeometry y="78" width="160" height="26" as="geometry" />
        </mxCell>
        <mxCell id="wTKbDZvRRet0_gXCNDXf-27" style="edgeStyle=orthogonalEdgeStyle;rounded=0;orthogonalLoop=1;jettySize=auto;html=1;entryX=0.5;entryY=0;entryDx=0;entryDy=0;startArrow=ERoneToMany;startFill=0;endArrow=ERone;endFill=0;strokeWidth=1;" parent="IEa4eLu7_Tm0JuJ3n0a0-1" source="wTKbDZvRRet0_gXCNDXf-53" target="wTKbDZvRRet0_gXCNDXf-23" edge="1">
          <mxGeometry relative="1" as="geometry">
            <mxPoint x="139" y="474" as="sourcePoint" />
          </mxGeometry>
        </mxCell>
        <mxCell id="wTKbDZvRRet0_gXCNDXf-28" style="edgeStyle=orthogonalEdgeStyle;rounded=0;orthogonalLoop=1;jettySize=auto;html=1;startArrow=ERone;startFill=0;endArrow=ERone;endFill=0;strokeWidth=1;" parent="IEa4eLu7_Tm0JuJ3n0a0-1" source="wTKbDZvRRet0_gXCNDXf-29" target="wTKbDZvRRet0_gXCNDXf-44" edge="1">
          <mxGeometry relative="1" as="geometry">
            <mxPoint x="539.047619047619" y="444" as="targetPoint" />
          </mxGeometry>
        </mxCell>
        <mxCell id="wTKbDZvRRet0_gXCNDXf-29" value="Party" style="swimlane;html=1;fontStyle=1;align=center;verticalAlign=top;childLayout=stackLayout;horizontal=1;startSize=26;horizontalStack=0;resizeParent=1;resizeLast=0;collapsible=1;marginBottom=0;swimlaneFillColor=#ffffff;rounded=0;shadow=0;comic=0;labelBackgroundColor=none;strokeWidth=1;fillColor=none;fontFamily=Verdana;fontSize=12" parent="IEa4eLu7_Tm0JuJ3n0a0-1" vertex="1">
          <mxGeometry x="589" y="164" width="180" height="156" as="geometry" />
        </mxCell>
        <mxCell id="wTKbDZvRRet0_gXCNDXf-30" value="&lt;b&gt;+party_id: int&lt;/b&gt;" style="text;html=1;strokeColor=none;fillColor=none;align=left;verticalAlign=top;spacingLeft=4;spacingRight=4;whiteSpace=wrap;overflow=hidden;rotatable=0;points=[[0,0.5],[1,0.5]];portConstraint=eastwest;" parent="wTKbDZvRRet0_gXCNDXf-29" vertex="1">
          <mxGeometry y="26" width="180" height="26" as="geometry" />
        </mxCell>
        <mxCell id="wTKbDZvRRet0_gXCNDXf-31" value="&lt;i&gt;party_leader_id: int&lt;/i&gt;" style="text;html=1;strokeColor=none;fillColor=none;align=left;verticalAlign=top;spacingLeft=4;spacingRight=4;whiteSpace=wrap;overflow=hidden;rotatable=0;points=[[0,0.5],[1,0.5]];portConstraint=eastwest;" parent="wTKbDZvRRet0_gXCNDXf-29" vertex="1">
          <mxGeometry y="52" width="180" height="26" as="geometry" />
        </mxCell>
        <mxCell id="wTKbDZvRRet0_gXCNDXf-32" value="party_name: varchar(255)" style="text;html=1;strokeColor=none;fillColor=none;align=left;verticalAlign=top;spacingLeft=4;spacingRight=4;whiteSpace=wrap;overflow=hidden;rotatable=0;points=[[0,0.5],[1,0.5]];portConstraint=eastwest;" parent="wTKbDZvRRet0_gXCNDXf-29" vertex="1">
          <mxGeometry y="78" width="180" height="26" as="geometry" />
        </mxCell>
        <mxCell id="wTKbDZvRRet0_gXCNDXf-33" value="party_address:&amp;nbsp; varchar(255)" style="text;html=1;strokeColor=none;fillColor=none;align=left;verticalAlign=top;spacingLeft=4;spacingRight=4;whiteSpace=wrap;overflow=hidden;rotatable=0;points=[[0,0.5],[1,0.5]];portConstraint=eastwest;" parent="wTKbDZvRRet0_gXCNDXf-29" vertex="1">
          <mxGeometry y="104" width="180" height="26" as="geometry" />
        </mxCell>
        <mxCell id="wTKbDZvRRet0_gXCNDXf-34" value="party_telephone: char(15)" style="text;html=1;strokeColor=none;fillColor=none;align=left;verticalAlign=top;spacingLeft=4;spacingRight=4;whiteSpace=wrap;overflow=hidden;rotatable=0;points=[[0,0.5],[1,0.5]];portConstraint=eastwest;" parent="wTKbDZvRRet0_gXCNDXf-29" vertex="1">
          <mxGeometry y="130" width="180" height="26" as="geometry" />
        </mxCell>
        <mxCell id="wTKbDZvRRet0_gXCNDXf-35" style="edgeStyle=orthogonalEdgeStyle;rounded=0;orthogonalLoop=1;jettySize=auto;html=1;startArrow=ERoneToMany;startFill=0;endArrow=ERone;endFill=0;strokeWidth=1;" parent="IEa4eLu7_Tm0JuJ3n0a0-1" source="wTKbDZvRRet0_gXCNDXf-44" target="wTKbDZvRRet0_gXCNDXf-8" edge="1">
          <mxGeometry relative="1" as="geometry">
            <mxPoint x="539" y="504" as="sourcePoint" />
            <Array as="points">
              <mxPoint x="579" y="519" />
              <mxPoint x="379" y="519" />
            </Array>
          </mxGeometry>
        </mxCell>
        <mxCell id="wTKbDZvRRet0_gXCNDXf-36" style="edgeStyle=orthogonalEdgeStyle;rounded=0;orthogonalLoop=1;jettySize=auto;html=1;startArrow=ERone;startFill=0;endArrow=ERone;endFill=0;strokeWidth=1;" parent="IEa4eLu7_Tm0JuJ3n0a0-1" target="wTKbDZvRRet0_gXCNDXf-23" edge="1">
          <mxGeometry relative="1" as="geometry">
            <mxPoint x="139" y="774" as="sourcePoint" />
          </mxGeometry>
        </mxCell>
        <mxCell id="wTKbDZvRRet0_gXCNDXf-37" style="edgeStyle=orthogonalEdgeStyle;rounded=0;orthogonalLoop=1;jettySize=auto;html=1;startArrow=ERone;startFill=0;endArrow=ERone;endFill=0;strokeWidth=1;" parent="IEa4eLu7_Tm0JuJ3n0a0-1" source="wTKbDZvRRet0_gXCNDXf-38" target="wTKbDZvRRet0_gXCNDXf-20" edge="1">
          <mxGeometry relative="1" as="geometry">
            <Array as="points">
              <mxPoint x="359" y="214" />
              <mxPoint x="169" y="214" />
            </Array>
            <mxPoint x="359" y="444" as="sourcePoint" />
          </mxGeometry>
        </mxCell>
        <mxCell id="wTKbDZvRRet0_gXCNDXf-38" value="County_Candidate" style="swimlane;html=1;fontStyle=1;align=center;verticalAlign=top;childLayout=stackLayout;horizontal=1;startSize=26;horizontalStack=0;resizeParent=1;resizeLast=0;collapsible=1;marginBottom=0;swimlaneFillColor=#ffffff;rounded=1;shadow=0;comic=0;labelBackgroundColor=none;strokeWidth=1;fillColor=none;fontFamily=Verdana;fontSize=12;sketch=0;glass=0;swimlaneLine=1;" parent="IEa4eLu7_Tm0JuJ3n0a0-1" vertex="1">
          <mxGeometry x="284" y="242" width="160" height="78" as="geometry" />
        </mxCell>
        <mxCell id="wTKbDZvRRet0_gXCNDXf-39" value="&lt;i&gt;candidate_id: int&lt;/i&gt;" style="text;html=1;strokeColor=none;fillColor=none;align=left;verticalAlign=top;spacingLeft=4;spacingRight=4;whiteSpace=wrap;overflow=hidden;rotatable=0;points=[[0,0.5],[1,0.5]];portConstraint=eastwest;fontStyle=0" parent="wTKbDZvRRet0_gXCNDXf-38" vertex="1">
          <mxGeometry y="26" width="160" height="26" as="geometry" />
        </mxCell>
        <mxCell id="wTKbDZvRRet0_gXCNDXf-40" value="&lt;i&gt;county_id: int&lt;/i&gt;" style="text;html=1;strokeColor=none;fillColor=none;align=left;verticalAlign=top;spacingLeft=4;spacingRight=4;whiteSpace=wrap;overflow=hidden;rotatable=0;points=[[0,0.5],[1,0.5]];portConstraint=eastwest;fontStyle=1" parent="wTKbDZvRRet0_gXCNDXf-38" vertex="1">
          <mxGeometry y="52" width="160" height="26" as="geometry" />
        </mxCell>
        <mxCell id="wTKbDZvRRet0_gXCNDXf-41" value="Pole_Citizen" style="swimlane;html=1;fontStyle=1;align=center;verticalAlign=top;childLayout=stackLayout;horizontal=1;startSize=26;horizontalStack=0;resizeParent=1;resizeLast=0;collapsible=1;marginBottom=0;swimlaneFillColor=#ffffff;rounded=1;shadow=0;comic=0;labelBackgroundColor=none;strokeWidth=1;fillColor=none;fontFamily=Verdana;fontSize=12" parent="IEa4eLu7_Tm0JuJ3n0a0-1" vertex="1">
          <mxGeometry x="59" y="774" width="160" height="78" as="geometry" />
        </mxCell>
        <mxCell id="wTKbDZvRRet0_gXCNDXf-42" value="&lt;i&gt;pole_id: int&lt;/i&gt;" style="text;html=1;strokeColor=none;fillColor=none;align=left;verticalAlign=top;spacingLeft=4;spacingRight=4;whiteSpace=wrap;overflow=hidden;rotatable=0;points=[[0,0.5],[1,0.5]];portConstraint=eastwest;fontStyle=1" parent="wTKbDZvRRet0_gXCNDXf-41" vertex="1">
          <mxGeometry y="26" width="160" height="26" as="geometry" />
        </mxCell>
        <mxCell id="wTKbDZvRRet0_gXCNDXf-43" value="&lt;i&gt;sin: int&lt;/i&gt;" style="text;html=1;strokeColor=none;fillColor=none;align=left;verticalAlign=top;spacingLeft=4;spacingRight=4;whiteSpace=wrap;overflow=hidden;rotatable=0;points=[[0,0.5],[1,0.5]];portConstraint=eastwest;fontStyle=0" parent="wTKbDZvRRet0_gXCNDXf-41" vertex="1">
          <mxGeometry y="52" width="160" height="26" as="geometry" />
        </mxCell>
        <mxCell id="wTKbDZvRRet0_gXCNDXf-44" value="Party_candidate" style="swimlane;html=1;fontStyle=1;align=center;verticalAlign=top;childLayout=stackLayout;horizontal=1;startSize=26;horizontalStack=0;resizeParent=1;resizeLast=0;collapsible=1;marginBottom=0;swimlaneFillColor=#ffffff;rounded=1;shadow=0;comic=0;labelBackgroundColor=none;strokeWidth=1;fillColor=none;fontFamily=Verdana;fontSize=12" parent="IEa4eLu7_Tm0JuJ3n0a0-1" vertex="1">
          <mxGeometry x="529" y="394" width="160" height="78" as="geometry" />
        </mxCell>
        <mxCell id="wTKbDZvRRet0_gXCNDXf-45" value="&lt;i&gt;candidate_id: int&lt;/i&gt;" style="text;html=1;strokeColor=none;fillColor=none;align=left;verticalAlign=top;spacingLeft=4;spacingRight=4;whiteSpace=wrap;overflow=hidden;rotatable=0;points=[[0,0.5],[1,0.5]];portConstraint=eastwest;fontStyle=0" parent="wTKbDZvRRet0_gXCNDXf-44" vertex="1">
          <mxGeometry y="26" width="160" height="26" as="geometry" />
        </mxCell>
        <mxCell id="wTKbDZvRRet0_gXCNDXf-46" value="&lt;i&gt;party_id: int&lt;/i&gt;" style="text;html=1;strokeColor=none;fillColor=none;align=left;verticalAlign=top;spacingLeft=4;spacingRight=4;whiteSpace=wrap;overflow=hidden;rotatable=0;points=[[0,0.5],[1,0.5]];portConstraint=eastwest;fontStyle=1" parent="wTKbDZvRRet0_gXCNDXf-44" vertex="1">
          <mxGeometry y="52" width="160" height="26" as="geometry" />
        </mxCell>
        <mxCell id="wTKbDZvRRet0_gXCNDXf-47" style="edgeStyle=orthogonalEdgeStyle;rounded=0;orthogonalLoop=1;jettySize=auto;html=1;startArrow=ERoneToMany;startFill=0;endArrow=ERone;endFill=0;strokeWidth=1;" parent="IEa4eLu7_Tm0JuJ3n0a0-1" source="wTKbDZvRRet0_gXCNDXf-48" target="wTKbDZvRRet0_gXCNDXf-29" edge="1">
          <mxGeometry relative="1" as="geometry">
            <Array as="points">
              <mxPoint x="729" y="936" />
            </Array>
          </mxGeometry>
        </mxCell>
        <mxCell id="wTKbDZvRRet0_gXCNDXf-48" value="Contribution" style="swimlane;html=1;fontStyle=1;align=center;verticalAlign=top;childLayout=stackLayout;horizontal=1;startSize=26;horizontalStack=0;resizeParent=1;resizeLast=0;collapsible=1;marginBottom=0;swimlaneFillColor=#ffffff;rounded=1;shadow=0;comic=0;labelBackgroundColor=none;strokeWidth=1;fillColor=none;fontFamily=Verdana;fontSize=12" parent="IEa4eLu7_Tm0JuJ3n0a0-1" vertex="1">
          <mxGeometry x="529" y="884" width="160" height="104" as="geometry" />
        </mxCell>
        <mxCell id="wTKbDZvRRet0_gXCNDXf-49" value="&lt;i&gt;sin: int(9)&lt;/i&gt;" style="text;html=1;strokeColor=none;fillColor=none;align=left;verticalAlign=top;spacingLeft=4;spacingRight=4;whiteSpace=wrap;overflow=hidden;rotatable=0;points=[[0,0.5],[1,0.5]];portConstraint=eastwest;fontStyle=0" parent="wTKbDZvRRet0_gXCNDXf-48" vertex="1">
          <mxGeometry y="26" width="160" height="26" as="geometry" />
        </mxCell>
        <mxCell id="wTKbDZvRRet0_gXCNDXf-50" value="party_id: int" style="text;html=1;strokeColor=none;fillColor=none;align=left;verticalAlign=top;spacingLeft=4;spacingRight=4;whiteSpace=wrap;overflow=hidden;rotatable=0;points=[[0,0.5],[1,0.5]];portConstraint=eastwest;fontStyle=2" parent="wTKbDZvRRet0_gXCNDXf-48" vertex="1">
          <mxGeometry y="52" width="160" height="26" as="geometry" />
        </mxCell>
        <mxCell id="wTKbDZvRRet0_gXCNDXf-51" value="amount: int" style="text;html=1;strokeColor=none;fillColor=none;align=left;verticalAlign=top;spacingLeft=4;spacingRight=4;whiteSpace=wrap;overflow=hidden;rotatable=0;points=[[0,0.5],[1,0.5]];portConstraint=eastwest;" parent="wTKbDZvRRet0_gXCNDXf-48" vertex="1">
          <mxGeometry y="78" width="160" height="26" as="geometry" />
        </mxCell>
        <mxCell id="wTKbDZvRRet0_gXCNDXf-52" value="&lt;div style=&quot;text-align: right&quot;&gt;&lt;span&gt;Legend&lt;/span&gt;&lt;/div&gt;&lt;b&gt;+field&lt;/b&gt;: PK&lt;br&gt;&lt;i&gt;field: FK&lt;br&gt;&lt;b&gt;field&lt;/b&gt;: FK PK&lt;/i&gt;" style="rounded=0;whiteSpace=wrap;html=1;shadow=0;align=left;strokeColor=none;fillColor=#E6E6E6;" parent="IEa4eLu7_Tm0JuJ3n0a0-1" vertex="1">
          <mxGeometry x="649" y="50" width="120" height="60" as="geometry" />
        </mxCell>
        <mxCell id="wTKbDZvRRet0_gXCNDXf-53" value="County_Pole" style="swimlane;html=1;fontStyle=1;align=center;verticalAlign=top;childLayout=stackLayout;horizontal=1;startSize=26;horizontalStack=0;resizeParent=1;resizeLast=0;collapsible=1;marginBottom=0;swimlaneFillColor=#ffffff;rounded=1;shadow=0;comic=0;labelBackgroundColor=none;strokeWidth=1;fillColor=none;fontFamily=Verdana;fontSize=12;sketch=0;glass=0;swimlaneLine=1;" parent="IEa4eLu7_Tm0JuJ3n0a0-1" vertex="1">
          <mxGeometry x="59" y="364" width="160" height="78" as="geometry" />
        </mxCell>
        <mxCell id="wTKbDZvRRet0_gXCNDXf-54" value="&lt;i&gt;pole_id: int&lt;/i&gt;" style="text;html=1;strokeColor=none;fillColor=none;align=left;verticalAlign=top;spacingLeft=4;spacingRight=4;whiteSpace=wrap;overflow=hidden;rotatable=0;points=[[0,0.5],[1,0.5]];portConstraint=eastwest;fontStyle=0" parent="wTKbDZvRRet0_gXCNDXf-53" vertex="1">
          <mxGeometry y="26" width="160" height="26" as="geometry" />
        </mxCell>
        <mxCell id="wTKbDZvRRet0_gXCNDXf-55" value="&lt;i&gt;county_id: int&lt;/i&gt;" style="text;html=1;strokeColor=none;fillColor=none;align=left;verticalAlign=top;spacingLeft=4;spacingRight=4;whiteSpace=wrap;overflow=hidden;rotatable=0;points=[[0,0.5],[1,0.5]];portConstraint=eastwest;fontStyle=1" parent="wTKbDZvRRet0_gXCNDXf-53" vertex="1">
          <mxGeometry y="52" width="160" height="26" as="geometry" />
        </mxCell>
      </root>
    </mxGraphModel>
  </diagram>
  <diagram id="sB7x_JdDlyP08dw4cZxs" name="Conceptual Diagram">
    <mxGraphModel dx="760" dy="793" grid="1" gridSize="10" guides="1" tooltips="1" connect="1" arrows="1" fold="1" page="1" pageScale="1" pageWidth="827" pageHeight="1169" math="0" shadow="0">
      <root>
        <mxCell id="0" />
        <mxCell id="1" parent="0" />
      </root>
    </mxGraphModel>
  </diagram>
  <diagram id="qoetEa2CBi9qsHWnxIJi" name="Logical Diagram">
    <mxGraphModel dx="760" dy="793" grid="1" gridSize="10" guides="1" tooltips="1" connect="1" arrows="1" fold="1" page="1" pageScale="1" pageWidth="827" pageHeight="1169" math="0" shadow="0">
      <root>
        <mxCell id="9Id9QdtVpShrrMjDGgOn-0" />
        <mxCell id="9Id9QdtVpShrrMjDGgOn-1" parent="9Id9QdtVpShrrMjDGgOn-0" />
      </root>
    </mxGraphModel>
  </diagram>
  <diagram id="83xys4qyWiFaCkzyq4AA" name="Physical Diagram">
    <mxGraphModel dx="760" dy="793" grid="1" gridSize="10" guides="1" tooltips="1" connect="1" arrows="1" fold="1" page="1" pageScale="1" pageWidth="827" pageHeight="1169" math="0" shadow="0">
      <root>
        <mxCell id="sQG8yK70UBoObLvyeg9Z-0" />
        <mxCell id="sQG8yK70UBoObLvyeg9Z-1" parent="sQG8yK70UBoObLvyeg9Z-0" />
      </root>
    </mxGraphModel>
  </diagram>
</mxfile>
